M48
; DRILL file {KiCad 8.0.1} date 2024-03-18T01:33:03-0700
; FORMAT={-:-/ absolute / inch / decimal}
; #@! TF.CreationDate,2024-03-18T01:33:03-07:00
; #@! TF.GenerationSoftware,Kicad,Pcbnew,8.0.1
; #@! TF.FileFunction,Plated,1,2,PTH
FMAT,2
INCH
; #@! TA.AperFunction,Plated,PTH,ViaDrill
T1C0.0118
; #@! TA.AperFunction,Plated,PTH,ComponentDrill
T2C0.0197
; #@! TA.AperFunction,Plated,PTH,ComponentDrill
T3C0.0295
; #@! TA.AperFunction,Plated,PTH,ComponentDrill
T4C0.0394
; #@! TA.AperFunction,Plated,PTH,ComponentDrill
T5C0.0500
; #@! TA.AperFunction,Plated,PTH,ComponentDrill
T6C0.0512
; #@! TA.AperFunction,Plated,PTH,ComponentDrill
T7C0.0669
; #@! TA.AperFunction,Plated,PTH,ComponentDrill
T8C0.1260
%
G90
G05
T1
X6.2283Y-1.2756
X6.2283Y-2.2598
X6.2283Y-2.2598
X6.254Y-3.2756
X6.254Y-4.2598
X6.3091Y-1.626
X6.3091Y-2.6122
X6.3091Y-3.5965
X6.311Y-4.5748
X6.3976Y-1.0709
X6.4134Y-2.0394
X6.4469Y-4.002
X6.4685Y-3.124
X7.2283Y-3.6227
T2
X5.3655Y-4.94
X5.3932Y-4.8732
X5.3932Y-5.0068
X5.46Y-4.8455
X5.46Y-5.0345
X5.5268Y-4.8732
X5.5268Y-5.0068
X5.5545Y-4.94
X5.7405Y-4.94
X5.7682Y-4.8732
X5.7682Y-5.0068
X5.835Y-4.8455
X5.835Y-5.0345
X5.9018Y-4.8732
X5.9018Y-5.0068
X5.9295Y-4.94
X6.3455Y-4.94
X6.3732Y-4.8732
X6.3732Y-5.0068
X6.44Y-4.8455
X6.44Y-5.0345
X6.5068Y-4.8732
X6.5068Y-5.0068
X6.5345Y-4.94
X6.6055Y-4.58
X6.6332Y-4.5132
X6.6332Y-4.6468
X6.7Y-4.4855
X6.7Y-4.6745
X6.7668Y-4.5132
X6.7668Y-4.6468
X6.7945Y-4.58
T3
X6.7087Y-1.27
X6.7874Y-0.84
X6.7874Y-1.27
X6.8661Y-0.84
X6.8661Y-1.27
X6.9449Y-0.84
X6.9449Y-1.27
X7.0236Y-0.84
X7.0236Y-1.27
X7.1024Y-0.84
X7.1024Y-1.27
T4
X6.0453Y-1.1791
X6.0453Y-1.6516
X6.0453Y-2.1634
X6.0453Y-2.6358
X6.0453Y-3.1476
X6.0453Y-3.6201
X6.0453Y-4.1319
X6.0453Y-4.6043
X6.8469Y-4.0955
X6.8488Y-1.7717
X6.8488Y-1.8717
X6.8488Y-1.9717
X6.8488Y-2.0717
X6.8488Y-2.1717
X6.8488Y-2.2717
X6.8488Y-2.3717
X6.8488Y-2.4717
X6.8488Y-2.5717
X6.8488Y-2.6717
X6.8488Y-2.7717
X6.8488Y-2.8717
X6.8488Y-2.9717
X6.8488Y-3.0717
X6.8488Y-3.1717
X6.8488Y-3.2717
X6.8488Y-3.3717
X6.8488Y-3.4717
X6.8488Y-3.5717
X6.8488Y-3.6717
X6.9469Y-4.0955
X6.9488Y-1.7717
X6.9488Y-1.8717
X6.9488Y-1.9717
X6.9488Y-2.0717
X6.9488Y-2.1717
X6.9488Y-2.2717
X6.9488Y-2.3717
X6.9488Y-2.4717
X6.9488Y-2.5717
X6.9488Y-2.6717
X6.9488Y-2.7717
X6.9488Y-2.8717
X6.9488Y-2.9717
X6.9488Y-3.0717
X6.9488Y-3.1717
X6.9488Y-3.2717
X6.9488Y-3.3717
X6.9488Y-3.4717
X6.9488Y-3.5717
X6.9488Y-3.6717
X8.65Y-2.175
X8.65Y-2.475
X8.65Y-2.575
X8.65Y-2.675
X8.65Y-2.875
X8.65Y-2.975
X8.65Y-3.175
X8.65Y-3.275
X8.65Y-3.375
X8.75Y-1.875
X8.75Y-1.975
X8.75Y-2.075
X8.75Y-2.175
X8.75Y-2.275
X8.75Y-2.575
X8.75Y-2.675
X8.75Y-2.775
X8.75Y-2.975
X8.75Y-3.075
X8.75Y-3.175
X8.75Y-3.375
X8.75Y-3.475
X8.75Y-3.575
T5
X7.6906Y-4.2654
X7.6906Y-4.6654
X7.6906Y-5.0654
X8.4906Y-4.5654
X8.4906Y-4.7654
X8.4906Y-5.0654
T6
X5.0516Y-1.3071
X5.0516Y-1.5071
X5.0516Y-2.2913
X5.0516Y-2.4913
X5.0516Y-3.2756
X5.0516Y-3.4756
X5.0516Y-4.2598
X5.0516Y-4.4598
X5.563Y-1.6535
X5.563Y-2.6378
X5.563Y-3.622
X5.563Y-4.6063
X5.565Y-1.1791
X5.565Y-2.1634
X5.565Y-3.1476
X5.565Y-4.1319
X6.122Y-1.4173
X6.122Y-2.4016
X6.122Y-3.3858
X6.122Y-4.3701
T7
X9.3287Y-4.3349
X9.3287Y-4.6349
T8
X5.46Y-4.94
X5.835Y-4.94
X6.44Y-4.94
X6.7Y-4.58
M30
