%TF.GenerationSoftware,KiCad,Pcbnew,8.0.1*%
%TF.CreationDate,2024-03-18T01:33:03-07:00*%
%TF.ProjectId,huffboard,68756666-626f-4617-9264-2e6b69636164,rev?*%
%TF.SameCoordinates,Original*%
%TF.FileFunction,Paste,Top*%
%TF.FilePolarity,Positive*%
%FSLAX46Y46*%
G04 Gerber Fmt 4.6, Leading zero omitted, Abs format (unit mm)*
G04 Created by KiCad (PCBNEW 8.0.1) date 2024-03-18 01:33:03*
%MOMM*%
%LPD*%
G01*
G04 APERTURE LIST*
G04 Aperture macros list*
%AMRoundRect*
0 Rectangle with rounded corners*
0 $1 Rounding radius*
0 $2 $3 $4 $5 $6 $7 $8 $9 X,Y pos of 4 corners*
0 Add a 4 corners polygon primitive as box body*
4,1,4,$2,$3,$4,$5,$6,$7,$8,$9,$2,$3,0*
0 Add four circle primitives for the rounded corners*
1,1,$1+$1,$2,$3*
1,1,$1+$1,$4,$5*
1,1,$1+$1,$6,$7*
1,1,$1+$1,$8,$9*
0 Add four rect primitives between the rounded corners*
20,1,$1+$1,$2,$3,$4,$5,0*
20,1,$1+$1,$4,$5,$6,$7,0*
20,1,$1+$1,$6,$7,$8,$9,0*
20,1,$1+$1,$8,$9,$2,$3,0*%
G04 Aperture macros list end*
%ADD10C,0.750000*%
%ADD11RoundRect,0.150000X0.512500X0.150000X-0.512500X0.150000X-0.512500X-0.150000X0.512500X-0.150000X0*%
%ADD12RoundRect,0.250000X-0.625000X0.312500X-0.625000X-0.312500X0.625000X-0.312500X0.625000X0.312500X0*%
%ADD13RoundRect,0.250000X-0.550000X1.500000X-0.550000X-1.500000X0.550000X-1.500000X0.550000X1.500000X0*%
%ADD14RoundRect,0.250000X-0.300000X-0.300000X0.300000X-0.300000X0.300000X0.300000X-0.300000X0.300000X0*%
%ADD15RoundRect,0.200000X0.200000X0.275000X-0.200000X0.275000X-0.200000X-0.275000X0.200000X-0.275000X0*%
%ADD16RoundRect,0.250000X0.625000X-0.312500X0.625000X0.312500X-0.625000X0.312500X-0.625000X-0.312500X0*%
%ADD17RoundRect,0.200000X-0.200000X-0.275000X0.200000X-0.275000X0.200000X0.275000X-0.200000X0.275000X0*%
%ADD18RoundRect,0.150000X-0.587500X-0.150000X0.587500X-0.150000X0.587500X0.150000X-0.587500X0.150000X0*%
%ADD19RoundRect,0.250000X-0.312500X-0.625000X0.312500X-0.625000X0.312500X0.625000X-0.312500X0.625000X0*%
%ADD20RoundRect,0.250000X0.312500X0.625000X-0.312500X0.625000X-0.312500X-0.625000X0.312500X-0.625000X0*%
%ADD21RoundRect,0.150000X-0.150000X0.587500X-0.150000X-0.587500X0.150000X-0.587500X0.150000X0.587500X0*%
%ADD22RoundRect,0.225000X-0.250000X0.225000X-0.250000X-0.225000X0.250000X-0.225000X0.250000X0.225000X0*%
G04 APERTURE END LIST*
D10*
%TO.C,H1*%
X192748335Y-38700000D02*
G75*
G02*
X193702696Y-37746781I2251665J-1300000D01*
G01*
X192748335Y-41300000D02*
G75*
G02*
X192400003Y-39996888I2251665J1300000D01*
G01*
X195000000Y-37400000D02*
G75*
G02*
X196302694Y-37749892I0J-2600000D01*
G01*
X195000000Y-42600000D02*
G75*
G02*
X193697306Y-42250108I0J2599996D01*
G01*
X197251665Y-38700000D02*
G75*
G02*
X197599997Y-40003112I-2251677J-1300003D01*
G01*
X197251665Y-41300000D02*
G75*
G02*
X196297304Y-42253219I-2251669J1300005D01*
G01*
%TO.C,H2*%
X241748335Y-38700000D02*
G75*
G02*
X242702696Y-37746781I2251665J-1300000D01*
G01*
X241748335Y-41300000D02*
G75*
G02*
X241400003Y-39996888I2251665J1300000D01*
G01*
X244000000Y-37400000D02*
G75*
G02*
X245302694Y-37749892I0J-2600000D01*
G01*
X244000000Y-42600000D02*
G75*
G02*
X242697306Y-42250108I0J2599996D01*
G01*
X246251665Y-38700000D02*
G75*
G02*
X246599997Y-40003112I-2251677J-1300003D01*
G01*
X246251665Y-41300000D02*
G75*
G02*
X245297304Y-42253219I-2251669J1300005D01*
G01*
%TO.C,H4*%
X241748335Y-96700000D02*
G75*
G02*
X242702696Y-95746781I2251665J-1300000D01*
G01*
X241748335Y-99300000D02*
G75*
G02*
X241400003Y-97996888I2251665J1300000D01*
G01*
X244000000Y-95400000D02*
G75*
G02*
X245302694Y-95749892I0J-2600000D01*
G01*
X244000000Y-100600000D02*
G75*
G02*
X242697306Y-100250108I0J2599996D01*
G01*
X246251665Y-96700000D02*
G75*
G02*
X246599997Y-98003112I-2251677J-1300003D01*
G01*
X246251665Y-99300000D02*
G75*
G02*
X245297304Y-100253219I-2251669J1300005D01*
G01*
%TO.C,H3*%
X192748335Y-96700000D02*
G75*
G02*
X193702696Y-95746781I2251665J-1300000D01*
G01*
X192748335Y-99300000D02*
G75*
G02*
X192400003Y-97996888I2251665J1300000D01*
G01*
X195000000Y-95400000D02*
G75*
G02*
X196302694Y-95749892I0J-2600000D01*
G01*
X195000000Y-100600000D02*
G75*
G02*
X193697306Y-100250108I0J2599996D01*
G01*
X197251665Y-96700000D02*
G75*
G02*
X197599997Y-98003112I-2251677J-1300003D01*
G01*
X197251665Y-99300000D02*
G75*
G02*
X196297304Y-100253219I-2251669J1300005D01*
G01*
%TD*%
D11*
%TO.C,Q3*%
X186637500Y-98979998D03*
X186637500Y-98029999D03*
X186637500Y-97080000D03*
X184362500Y-97080000D03*
X184362500Y-98029999D03*
X184362500Y-98979998D03*
%TD*%
D12*
%TO.C,R12*%
X162400000Y-79337500D03*
X162400000Y-82262500D03*
%TD*%
D13*
%TO.C,C3*%
X184872290Y-115433229D03*
X184872290Y-120833229D03*
%TD*%
D14*
%TO.C,D3*%
X159000001Y-93000000D03*
X161799999Y-93000000D03*
%TD*%
D15*
%TO.C,R1*%
X161425000Y-110600000D03*
X159775000Y-110600000D03*
%TD*%
D16*
%TO.C,R11*%
X159200000Y-82262500D03*
X159200000Y-79337500D03*
%TD*%
D17*
%TO.C,R2*%
X184675000Y-92067499D03*
X186325000Y-92067499D03*
%TD*%
D18*
%TO.C,Q4*%
X159676257Y-37850000D03*
X159676257Y-39750000D03*
X161551258Y-38800000D03*
%TD*%
%TO.C,Q1*%
X159662500Y-112850000D03*
X159662500Y-114750000D03*
X161537501Y-113800000D03*
%TD*%
D16*
%TO.C,R7*%
X159200000Y-107262500D03*
X159200000Y-104337500D03*
%TD*%
D19*
%TO.C,R14*%
X159337500Y-57400000D03*
X162262500Y-57400000D03*
%TD*%
D15*
%TO.C,R6*%
X161425000Y-60600000D03*
X159775000Y-60600000D03*
%TD*%
%TO.C,R5*%
X161425000Y-85600000D03*
X159775000Y-85600000D03*
%TD*%
D20*
%TO.C,R9*%
X162262500Y-29200000D03*
X159337500Y-29200000D03*
%TD*%
D21*
%TO.C,Q2*%
X186450000Y-101629999D03*
X184550000Y-101629999D03*
X185500000Y-103505000D03*
%TD*%
D15*
%TO.C,R3*%
X186325000Y-94567499D03*
X184675000Y-94567499D03*
%TD*%
D14*
%TO.C,D4*%
X159000001Y-68000000D03*
X161799999Y-68000000D03*
%TD*%
D18*
%TO.C,Q6*%
X159662500Y-62850000D03*
X159662500Y-64750000D03*
X161537501Y-63800000D03*
%TD*%
D14*
%TO.C,D1*%
X159000001Y-118000000D03*
X161799999Y-118000000D03*
%TD*%
D20*
%TO.C,R13*%
X162262500Y-54200000D03*
X159337500Y-54200000D03*
%TD*%
D19*
%TO.C,R10*%
X159337500Y-32400000D03*
X162262500Y-32400000D03*
%TD*%
D13*
%TO.C,C1*%
X225372290Y-109300000D03*
X225372290Y-114700000D03*
%TD*%
D15*
%TO.C,R4*%
X161425000Y-35600000D03*
X159775000Y-35600000D03*
%TD*%
D14*
%TO.C,D2*%
X159000001Y-43000000D03*
X161799999Y-43000000D03*
%TD*%
D12*
%TO.C,R8*%
X162400000Y-104337500D03*
X162400000Y-107262500D03*
%TD*%
D22*
%TO.C,C2*%
X178725000Y-117725000D03*
X178725000Y-119275000D03*
%TD*%
D18*
%TO.C,Q5*%
X159662500Y-87850000D03*
X159662500Y-89750000D03*
X161537501Y-88800000D03*
%TD*%
M02*
