%TF.GenerationSoftware,KiCad,Pcbnew,8.0.1*%
%TF.CreationDate,2024-03-18T01:33:03-07:00*%
%TF.ProjectId,huffboard,68756666-626f-4617-9264-2e6b69636164,rev?*%
%TF.SameCoordinates,Original*%
%TF.FileFunction,Copper,L1,Top*%
%TF.FilePolarity,Positive*%
%FSLAX46Y46*%
G04 Gerber Fmt 4.6, Leading zero omitted, Abs format (unit mm)*
G04 Created by KiCad (PCBNEW 8.0.1) date 2024-03-18 01:33:03*
%MOMM*%
%LPD*%
G01*
G04 APERTURE LIST*
G04 Aperture macros list*
%AMRoundRect*
0 Rectangle with rounded corners*
0 $1 Rounding radius*
0 $2 $3 $4 $5 $6 $7 $8 $9 X,Y pos of 4 corners*
0 Add a 4 corners polygon primitive as box body*
4,1,4,$2,$3,$4,$5,$6,$7,$8,$9,$2,$3,0*
0 Add four circle primitives for the rounded corners*
1,1,$1+$1,$2,$3*
1,1,$1+$1,$4,$5*
1,1,$1+$1,$6,$7*
1,1,$1+$1,$8,$9*
0 Add four rect primitives between the rounded corners*
20,1,$1+$1,$2,$3,$4,$5,0*
20,1,$1+$1,$4,$5,$6,$7,0*
20,1,$1+$1,$6,$7,$8,$9,0*
20,1,$1+$1,$8,$9,$2,$3,0*%
G04 Aperture macros list end*
%TA.AperFunction,ComponentPad*%
%ADD10C,3.000000*%
%TD*%
%TA.AperFunction,ComponentPad*%
%ADD11C,2.500000*%
%TD*%
%TA.AperFunction,WasherPad*%
%ADD12C,6.200000*%
%TD*%
%TA.AperFunction,ComponentPad*%
%ADD13RoundRect,0.250000X-0.350000X-0.625000X0.350000X-0.625000X0.350000X0.625000X-0.350000X0.625000X0*%
%TD*%
%TA.AperFunction,ComponentPad*%
%ADD14O,1.200000X1.750000*%
%TD*%
%TA.AperFunction,ComponentPad*%
%ADD15R,2.600000X2.600000*%
%TD*%
%TA.AperFunction,ComponentPad*%
%ADD16C,2.600000*%
%TD*%
%TA.AperFunction,SMDPad,CuDef*%
%ADD17RoundRect,0.150000X0.512500X0.150000X-0.512500X0.150000X-0.512500X-0.150000X0.512500X-0.150000X0*%
%TD*%
%TA.AperFunction,SMDPad,CuDef*%
%ADD18RoundRect,0.250000X-0.625000X0.312500X-0.625000X-0.312500X0.625000X-0.312500X0.625000X0.312500X0*%
%TD*%
%TA.AperFunction,ComponentPad*%
%ADD19C,1.700000*%
%TD*%
%TA.AperFunction,SMDPad,CuDef*%
%ADD20RoundRect,0.250000X-0.550000X1.500000X-0.550000X-1.500000X0.550000X-1.500000X0.550000X1.500000X0*%
%TD*%
%TA.AperFunction,SMDPad,CuDef*%
%ADD21RoundRect,0.250000X-0.300000X-0.300000X0.300000X-0.300000X0.300000X0.300000X-0.300000X0.300000X0*%
%TD*%
%TA.AperFunction,ComponentPad*%
%ADD22RoundRect,0.250000X0.600000X0.600000X-0.600000X0.600000X-0.600000X-0.600000X0.600000X-0.600000X0*%
%TD*%
%TA.AperFunction,SMDPad,CuDef*%
%ADD23RoundRect,0.200000X0.200000X0.275000X-0.200000X0.275000X-0.200000X-0.275000X0.200000X-0.275000X0*%
%TD*%
%TA.AperFunction,SMDPad,CuDef*%
%ADD24RoundRect,0.250000X0.625000X-0.312500X0.625000X0.312500X-0.625000X0.312500X-0.625000X-0.312500X0*%
%TD*%
%TA.AperFunction,SMDPad,CuDef*%
%ADD25RoundRect,0.200000X-0.200000X-0.275000X0.200000X-0.275000X0.200000X0.275000X-0.200000X0.275000X0*%
%TD*%
%TA.AperFunction,SMDPad,CuDef*%
%ADD26RoundRect,0.150000X-0.587500X-0.150000X0.587500X-0.150000X0.587500X0.150000X-0.587500X0.150000X0*%
%TD*%
%TA.AperFunction,ComponentPad*%
%ADD27C,0.800000*%
%TD*%
%TA.AperFunction,ComponentPad*%
%ADD28C,6.400000*%
%TD*%
%TA.AperFunction,SMDPad,CuDef*%
%ADD29RoundRect,0.250000X-0.312500X-0.625000X0.312500X-0.625000X0.312500X0.625000X-0.312500X0.625000X0*%
%TD*%
%TA.AperFunction,SMDPad,CuDef*%
%ADD30RoundRect,0.250000X0.312500X0.625000X-0.312500X0.625000X-0.312500X-0.625000X0.312500X-0.625000X0*%
%TD*%
%TA.AperFunction,SMDPad,CuDef*%
%ADD31RoundRect,0.150000X-0.150000X0.587500X-0.150000X-0.587500X0.150000X-0.587500X0.150000X0.587500X0*%
%TD*%
%TA.AperFunction,ComponentPad*%
%ADD32C,2.270000*%
%TD*%
%TA.AperFunction,SMDPad,CuDef*%
%ADD33RoundRect,0.225000X-0.250000X0.225000X-0.250000X-0.225000X0.250000X-0.225000X0.250000X0.225000X0*%
%TD*%
%TA.AperFunction,ComponentPad*%
%ADD34R,1.700000X1.700000*%
%TD*%
%TA.AperFunction,ComponentPad*%
%ADD35O,1.700000X1.700000*%
%TD*%
%TA.AperFunction,ViaPad*%
%ADD36C,0.600000*%
%TD*%
%TA.AperFunction,Conductor*%
%ADD37C,0.600000*%
%TD*%
%TA.AperFunction,Conductor*%
%ADD38C,2.000000*%
%TD*%
%TA.AperFunction,Conductor*%
%ADD39C,0.200000*%
%TD*%
G04 APERTURE END LIST*
D10*
%TO.P,K3,1*%
%TO.N,RELAY_{3}*%
X155500000Y-86000000D03*
D11*
%TO.P,K3,2*%
%TO.N,Net-(D3-A)*%
X153550000Y-79950000D03*
D10*
%TO.P,K3,3*%
%TO.N,Net-(K3-Pad3)*%
X141350000Y-79950000D03*
%TO.P,K3,4*%
%TO.N,Net-(K3-Pad4)*%
X141300000Y-92000000D03*
D11*
%TO.P,K3,5*%
%TO.N,+12V*%
X153550000Y-91950000D03*
%TD*%
D12*
%TO.P,H1,*%
%TO.N,*%
X195000000Y-40000000D03*
%TD*%
D13*
%TO.P,J8,1,Pin_1*%
%TO.N,SPI0_{MISO}*%
X170400000Y-32258000D03*
D14*
%TO.P,J8,2,Pin_2*%
%TO.N,SPI0_{CLK}*%
X172400000Y-32258000D03*
%TO.P,J8,3,Pin_3*%
%TO.N,SPI0_{CE1}*%
X174400000Y-32258000D03*
%TO.P,J8,4,Pin_4*%
%TO.N,SPI0_{MOSI}*%
X176400000Y-32258000D03*
%TO.P,J8,5,Pin_5*%
%TO.N,GNDREF*%
X178400000Y-32258000D03*
%TO.P,J8,6,Pin_6*%
%TO.N,5V_to_Pi*%
X180400000Y-32258000D03*
%TD*%
D15*
%TO.P,J5,1,Pin_1*%
%TO.N,GNDREF*%
X128310001Y-83199996D03*
D16*
%TO.P,J5,2,Pin_2*%
%TO.N,RELAY_{3}*%
X128310001Y-88279995D03*
%TD*%
D17*
%TO.P,Q3,1,C1*%
%TO.N,Net-(Q2-G)*%
X186637500Y-98979998D03*
%TO.P,Q3,2,B1*%
X186637500Y-98029999D03*
%TO.P,Q3,3,B2*%
X186637500Y-97080000D03*
%TO.P,Q3,4,C2*%
%TO.N,Net-(Q3B-C2)*%
X184362500Y-97080000D03*
%TO.P,Q3,5,E2*%
%TO.N,5V_to_Pi*%
X184362500Y-98029999D03*
%TO.P,Q3,6,E1*%
%TO.N,5V_from_supply*%
X184362500Y-98979998D03*
%TD*%
D18*
%TO.P,R12,1*%
%TO.N,GNDREF*%
X162400000Y-79337500D03*
%TO.P,R12,2*%
%TO.N,Net-(K3-Pad3)*%
X162400000Y-82262500D03*
%TD*%
D19*
%TO.P,TP23,1,1*%
%TO.N,SPI0_{CLK}*%
X222250000Y-65405000D03*
%TD*%
D12*
%TO.P,H2,*%
%TO.N,*%
X244000000Y-40000000D03*
%TD*%
D20*
%TO.P,C3,1*%
%TO.N,5V_from_supply*%
X184872290Y-115433229D03*
%TO.P,C3,2*%
%TO.N,GNDREF*%
X184872290Y-120833229D03*
%TD*%
D21*
%TO.P,D3,1,K*%
%TO.N,+12V*%
X159000001Y-93000000D03*
%TO.P,D3,2,A*%
%TO.N,Net-(D3-A)*%
X161799999Y-93000000D03*
%TD*%
D19*
%TO.P,TP19,1,1*%
%TO.N,SPI0_{CE1}*%
X219710000Y-62865000D03*
%TD*%
%TO.P,TP11,1,1*%
%TO.N,Net-(J1-GPIO23)*%
X219710000Y-75565000D03*
%TD*%
D10*
%TO.P,K1,1*%
%TO.N,RELAY_{1}*%
X155500000Y-111000000D03*
D11*
%TO.P,K1,2*%
%TO.N,Net-(D1-A)*%
X153550000Y-104950000D03*
D10*
%TO.P,K1,3*%
%TO.N,Net-(K1-Pad3)*%
X141350000Y-104950000D03*
%TO.P,K1,4*%
%TO.N,Net-(K1-Pad4)*%
X141300000Y-117000000D03*
D11*
%TO.P,K1,5*%
%TO.N,+12V*%
X153550000Y-116950000D03*
%TD*%
D16*
%TO.P,J2,1,Pin_1*%
%TO.N,GNDREF*%
X236950000Y-117726770D03*
%TO.P,J2,2,Pin_2*%
%TO.N,+12V*%
X236950000Y-110106770D03*
%TD*%
D19*
%TO.P,TP1,1,1*%
%TO.N,Net-(J1-SDA{slash}GPIO2)*%
X222250000Y-90805000D03*
%TD*%
D22*
%TO.P,J1,1,3V3*%
%TO.N,Net-(J1-3V3-Pad1)*%
X176500000Y-93260000D03*
D19*
%TO.P,J1,2,5V*%
%TO.N,5V_to_Pi*%
X173960000Y-93260000D03*
%TO.P,J1,3,SDA/GPIO2*%
%TO.N,Net-(J1-SDA{slash}GPIO2)*%
X176500000Y-90720000D03*
%TO.P,J1,4,5V*%
%TO.N,5V_to_Pi*%
X173960000Y-90720000D03*
%TO.P,J1,5,SCL/GPIO3*%
%TO.N,Net-(J1-SCL{slash}GPIO3)*%
X176500000Y-88180001D03*
%TO.P,J1,6,GND*%
%TO.N,GNDREF*%
X173960000Y-88180000D03*
%TO.P,J1,7,GCLK0/GPIO4*%
%TO.N,Net-(J1-GCLK0{slash}GPIO4)*%
X176500000Y-85640000D03*
%TO.P,J1,8,GPIO14/TXD*%
%TO.N,Net-(J1-GPIO14{slash}TXD)*%
X173960000Y-85640000D03*
%TO.P,J1,9,GND*%
%TO.N,GNDREF*%
X176500000Y-83100000D03*
%TO.P,J1,10,GPIO15/RXD*%
%TO.N,Net-(J1-GPIO15{slash}RXD)*%
X173960000Y-83100000D03*
%TO.P,J1,11,GPIO17*%
%TO.N,Net-(J1-GPIO17)*%
X176500000Y-80560000D03*
%TO.P,J1,12,GPIO18/PWM0*%
%TO.N,Net-(J1-GPIO18{slash}PWM0)*%
X173960000Y-80560000D03*
%TO.P,J1,13,GPIO27*%
%TO.N,Net-(J1-GPIO27)*%
X176500000Y-78020000D03*
%TO.P,J1,14,GND*%
%TO.N,GNDREF*%
X173960000Y-78020000D03*
%TO.P,J1,15,GPIO22*%
%TO.N,Net-(J1-GPIO22)*%
X176500000Y-75479999D03*
%TO.P,J1,16,GPIO23*%
%TO.N,Net-(J1-GPIO23)*%
X173960000Y-75480000D03*
%TO.P,J1,17,3V3*%
%TO.N,Net-(J1-3V3-Pad1)*%
X176500000Y-72940000D03*
%TO.P,J1,18,GPIO24*%
%TO.N,Net-(J1-GPIO24)*%
X173960000Y-72940000D03*
%TO.P,J1,19,MOSI0/GPIO10*%
%TO.N,SPI0_{MOSI}*%
X176500000Y-70400000D03*
%TO.P,J1,20,GND*%
%TO.N,GNDREF*%
X173960000Y-70400000D03*
%TO.P,J1,21,MISO0/GPIO9*%
%TO.N,SPI0_{MISO}*%
X176500000Y-67860000D03*
%TO.P,J1,22,GPIO25*%
%TO.N,Net-(J1-GPIO25)*%
X173960000Y-67860000D03*
%TO.P,J1,23,SCLK0/GPIO11*%
%TO.N,SPI0_{CLK}*%
X176500000Y-65320001D03*
%TO.P,J1,24,~{CE0}/GPIO8*%
%TO.N,SPI0_{CE0}*%
X173960000Y-65320000D03*
%TO.P,J1,25,GND*%
%TO.N,GNDREF*%
X176500000Y-62780000D03*
%TO.P,J1,26,~{CE1}/GPIO7*%
%TO.N,SPI0_{CE1}*%
X173960000Y-62780000D03*
%TO.P,J1,27,ID_SD/GPIO0*%
%TO.N,unconnected-(J1-ID_SD{slash}GPIO0-Pad27)*%
X176500000Y-60240000D03*
%TO.P,J1,28,ID_SC/GPIO1*%
%TO.N,unconnected-(J1-ID_SC{slash}GPIO1-Pad28)*%
X173960000Y-60240000D03*
%TO.P,J1,29,GCLK1/GPIO5*%
%TO.N,Net-(J1-GCLK1{slash}GPIO5)*%
X176500000Y-57700000D03*
%TO.P,J1,30,GND*%
%TO.N,GNDREF*%
X173960000Y-57700000D03*
%TO.P,J1,31,GCLK2/GPIO6*%
%TO.N,IO RELAY_{1}*%
X176500000Y-55160001D03*
%TO.P,J1,32,PWM0/GPIO12*%
%TO.N,Net-(J1-PWM0{slash}GPIO12)*%
X173960000Y-55160000D03*
%TO.P,J1,33,PWM1/GPIO13*%
%TO.N,IO RELAY_{3}*%
X176500000Y-52619999D03*
%TO.P,J1,34,GND*%
%TO.N,GNDREF*%
X173960000Y-52620000D03*
%TO.P,J1,35,GPIO19/MISO1*%
%TO.N,IO RELAY_{4}*%
X176500000Y-50080000D03*
%TO.P,J1,36,GPIO16*%
%TO.N,unconnected-(J1-GPIO16-Pad36)*%
X173960000Y-50080000D03*
%TO.P,J1,37,GPIO26*%
%TO.N,IO RELAY_{2}*%
X176500000Y-47540000D03*
%TO.P,J1,38,GPIO20/MOSI1*%
%TO.N,unconnected-(J1-GPIO20{slash}MOSI1-Pad38)*%
X173960000Y-47540000D03*
%TO.P,J1,39,GND*%
%TO.N,GNDREF*%
X176500000Y-45000000D03*
%TO.P,J1,40,GPIO21/SCLK1*%
%TO.N,unconnected-(J1-GPIO21{slash}SCLK1-Pad40)*%
X173960000Y-45000000D03*
%TD*%
D23*
%TO.P,R1,1*%
%TO.N,IO RELAY_{1}*%
X161425000Y-110600000D03*
%TO.P,R1,2*%
%TO.N,Net-(Q1-B)*%
X159775000Y-110600000D03*
%TD*%
D24*
%TO.P,R11,1*%
%TO.N,+12V*%
X159200000Y-82262500D03*
%TO.P,R11,2*%
%TO.N,Net-(K3-Pad4)*%
X159200000Y-79337500D03*
%TD*%
D25*
%TO.P,R2,1*%
%TO.N,GNDREF*%
X184675000Y-92067499D03*
%TO.P,R2,2*%
%TO.N,Net-(Q2-G)*%
X186325000Y-92067499D03*
%TD*%
D15*
%TO.P,J4,1,Pin_1*%
%TO.N,GNDREF*%
X128310001Y-33199996D03*
D16*
%TO.P,J4,2,Pin_2*%
%TO.N,RELAY_{2}*%
X128310001Y-38279995D03*
%TD*%
D26*
%TO.P,Q4,1,B*%
%TO.N,Net-(Q4-B)*%
X159676257Y-37850000D03*
%TO.P,Q4,2,E*%
%TO.N,GNDREF*%
X159676257Y-39750000D03*
%TO.P,Q4,3,C*%
%TO.N,Net-(D2-A)*%
X161551258Y-38800000D03*
%TD*%
D19*
%TO.P,TP7,1,1*%
%TO.N,Net-(J1-GPIO18{slash}PWM0)*%
X219710000Y-80645000D03*
%TD*%
D26*
%TO.P,Q1,1,B*%
%TO.N,Net-(Q1-B)*%
X159662500Y-112850000D03*
%TO.P,Q1,2,E*%
%TO.N,GNDREF*%
X159662500Y-114750000D03*
%TO.P,Q1,3,C*%
%TO.N,Net-(D1-A)*%
X161537501Y-113800000D03*
%TD*%
D19*
%TO.P,TP8,1,1*%
%TO.N,IO RELAY_{1}*%
X222250000Y-55245000D03*
%TD*%
%TO.P,TP3,1,1*%
%TO.N,Net-(J1-GPIO14{slash}TXD)*%
X219710000Y-85725000D03*
%TD*%
D24*
%TO.P,R7,1*%
%TO.N,+12V*%
X159200000Y-107262500D03*
%TO.P,R7,2*%
%TO.N,Net-(K1-Pad4)*%
X159200000Y-104337500D03*
%TD*%
D19*
%TO.P,TP5,1,1*%
%TO.N,IO RELAY_{2}*%
X222250000Y-47625000D03*
%TD*%
D27*
%TO.P,H10,1,1*%
%TO.N,+12V*%
X161176000Y-125476000D03*
X161878944Y-123778944D03*
X161878944Y-127173056D03*
X163576000Y-123076000D03*
D28*
X163576000Y-125476000D03*
D27*
X163576000Y-127876000D03*
X165273056Y-123778944D03*
X165273056Y-127173056D03*
X165976000Y-125476000D03*
%TD*%
D19*
%TO.P,TP2,1,1*%
%TO.N,Net-(J1-SCL{slash}GPIO3)*%
X222250000Y-88265000D03*
%TD*%
D12*
%TO.P,H4,*%
%TO.N,*%
X244000000Y-98000000D03*
%TD*%
D19*
%TO.P,TP16,1,1*%
%TO.N,Net-(J1-GCLK1{slash}GPIO5)*%
X222250000Y-57785000D03*
%TD*%
D15*
%TO.P,J6,1,Pin_1*%
%TO.N,GNDREF*%
X128310001Y-58199996D03*
D16*
%TO.P,J6,2,Pin_2*%
%TO.N,RELAY_{4}*%
X128310001Y-63279995D03*
%TD*%
D29*
%TO.P,R14,1*%
%TO.N,+12V*%
X159337500Y-57400000D03*
%TO.P,R14,2*%
%TO.N,Net-(K4-Pad3)*%
X162262500Y-57400000D03*
%TD*%
D19*
%TO.P,TP18,1,1*%
%TO.N,IO RELAY_{4}*%
X222250000Y-50165000D03*
%TD*%
D23*
%TO.P,R6,1*%
%TO.N,IO RELAY_{4}*%
X161425000Y-60600000D03*
%TO.P,R6,2*%
%TO.N,Net-(Q6-B)*%
X159775000Y-60600000D03*
%TD*%
D10*
%TO.P,K4,1*%
%TO.N,RELAY_{4}*%
X155500000Y-61000000D03*
D11*
%TO.P,K4,2*%
%TO.N,Net-(D4-A)*%
X153550000Y-54950000D03*
D10*
%TO.P,K4,3*%
%TO.N,Net-(K4-Pad3)*%
X141350000Y-54950000D03*
%TO.P,K4,4*%
%TO.N,Net-(K4-Pad4)*%
X141300000Y-67000000D03*
D11*
%TO.P,K4,5*%
%TO.N,+12V*%
X153550000Y-66950000D03*
%TD*%
D23*
%TO.P,R5,1*%
%TO.N,IO RELAY_{3}*%
X161425000Y-85600000D03*
%TO.P,R5,2*%
%TO.N,Net-(Q5-B)*%
X159775000Y-85600000D03*
%TD*%
D13*
%TO.P,J7,1,Pin_1*%
%TO.N,SPI0_{CLK}*%
X172400000Y-21336000D03*
D14*
%TO.P,J7,2,Pin_2*%
%TO.N,SPI0_{CE0}*%
X174400000Y-21336000D03*
%TO.P,J7,3,Pin_3*%
%TO.N,SPI0_{MOSI}*%
X176400000Y-21336000D03*
%TO.P,J7,4,Pin_4*%
%TO.N,GNDREF*%
X178400000Y-21336000D03*
%TO.P,J7,5,Pin_5*%
%TO.N,5V_to_Pi*%
X180400000Y-21336000D03*
%TD*%
D27*
%TO.P,H9,1,1*%
%TO.N,GNDREF*%
X136284000Y-125476000D03*
X136986944Y-123778944D03*
X136986944Y-127173056D03*
X138684000Y-123076000D03*
D28*
X138684000Y-125476000D03*
D27*
X138684000Y-127876000D03*
X140381056Y-123778944D03*
X140381056Y-127173056D03*
X141084000Y-125476000D03*
%TD*%
D19*
%TO.P,TP4,1,1*%
%TO.N,Net-(J1-GPIO15{slash}RXD)*%
X219710000Y-83185000D03*
%TD*%
D30*
%TO.P,R9,1*%
%TO.N,GNDREF*%
X162262500Y-29200000D03*
%TO.P,R9,2*%
%TO.N,Net-(K2-Pad4)*%
X159337500Y-29200000D03*
%TD*%
D19*
%TO.P,TP22,1,1*%
%TO.N,SPI0_{MOSI}*%
X222250000Y-70485000D03*
%TD*%
%TO.P,TP15,1,1*%
%TO.N,Net-(J1-PWM0{slash}GPIO12)*%
X219710000Y-55245000D03*
%TD*%
D12*
%TO.P,H3,*%
%TO.N,*%
X195000000Y-98000000D03*
%TD*%
D31*
%TO.P,Q2,1,G*%
%TO.N,Net-(Q2-G)*%
X186450000Y-101629999D03*
%TO.P,Q2,2,S*%
%TO.N,5V_to_Pi*%
X184550000Y-101629999D03*
%TO.P,Q2,3,D*%
%TO.N,5V_from_supply*%
X185500000Y-103505000D03*
%TD*%
D23*
%TO.P,R3,1*%
%TO.N,GNDREF*%
X186325000Y-94567499D03*
%TO.P,R3,2*%
%TO.N,Net-(Q3B-C2)*%
X184675000Y-94567499D03*
%TD*%
D21*
%TO.P,D4,1,K*%
%TO.N,+12V*%
X159000001Y-68000000D03*
%TO.P,D4,2,A*%
%TO.N,Net-(D4-A)*%
X161799999Y-68000000D03*
%TD*%
D26*
%TO.P,Q6,1,B*%
%TO.N,Net-(Q6-B)*%
X159662500Y-62850000D03*
%TO.P,Q6,2,E*%
%TO.N,GNDREF*%
X159662500Y-64750000D03*
%TO.P,Q6,3,C*%
%TO.N,Net-(D4-A)*%
X161537501Y-63800000D03*
%TD*%
D21*
%TO.P,D1,1,K*%
%TO.N,+12V*%
X159000001Y-118000000D03*
%TO.P,D1,2,A*%
%TO.N,Net-(D1-A)*%
X161799999Y-118000000D03*
%TD*%
D19*
%TO.P,TP13,1,1*%
%TO.N,Net-(J1-GPIO25)*%
X219710000Y-67945000D03*
%TD*%
D30*
%TO.P,R13,1*%
%TO.N,GNDREF*%
X162262500Y-54200000D03*
%TO.P,R13,2*%
%TO.N,Net-(K4-Pad4)*%
X159337500Y-54200000D03*
%TD*%
D29*
%TO.P,R10,1*%
%TO.N,+12V*%
X159337500Y-32400000D03*
%TO.P,R10,2*%
%TO.N,Net-(K2-Pad3)*%
X162262500Y-32400000D03*
%TD*%
D20*
%TO.P,C1,1*%
%TO.N,+12V*%
X225372290Y-109300000D03*
%TO.P,C1,2*%
%TO.N,GNDREF*%
X225372290Y-114700000D03*
%TD*%
D19*
%TO.P,TP9,1,1*%
%TO.N,IO RELAY_{3}*%
X222250000Y-52705000D03*
%TD*%
%TO.P,TP10,1,1*%
%TO.N,Net-(J1-GPIO22)*%
X222250000Y-75565000D03*
%TD*%
D23*
%TO.P,R4,1*%
%TO.N,IO RELAY_{2}*%
X161425000Y-35600000D03*
%TO.P,R4,2*%
%TO.N,Net-(Q4-B)*%
X159775000Y-35600000D03*
%TD*%
D19*
%TO.P,TP17,1,1*%
%TO.N,Net-(J1-GCLK0{slash}GPIO4)*%
X222250000Y-85725000D03*
%TD*%
%TO.P,TP12,1,1*%
%TO.N,Net-(J1-GPIO24)*%
X219710000Y-73025000D03*
%TD*%
D32*
%TO.P,U1,1,V_{in}+*%
%TO.N,+12V*%
X215660000Y-115960000D03*
%TO.P,U1,2,V_{in}-*%
%TO.N,GNDREF*%
X215660000Y-121040000D03*
%TO.P,U1,3,CTRL*%
%TO.N,unconnected-(U1-CTRL-Pad3)*%
X215660000Y-128660000D03*
%TO.P,U1,4,V_{out}-*%
%TO.N,GNDREF*%
X195340000Y-128660000D03*
%TO.P,U1,5,NP*%
%TO.N,unconnected-(U1-NP-Pad5)*%
X195340000Y-118500000D03*
%TO.P,U1,6,V_{out}+*%
%TO.N,5V_from_supply*%
X195340000Y-108340000D03*
%TD*%
D19*
%TO.P,TP6,1,1*%
%TO.N,Net-(J1-GPIO17)*%
X222250000Y-80645000D03*
%TD*%
%TO.P,TP14,1,1*%
%TO.N,Net-(J1-GPIO27)*%
X222250000Y-78105000D03*
%TD*%
D21*
%TO.P,D2,1,K*%
%TO.N,+12V*%
X159000001Y-43000000D03*
%TO.P,D2,2,A*%
%TO.N,Net-(D2-A)*%
X161799999Y-43000000D03*
%TD*%
D27*
%TO.P,H11,1,1*%
%TO.N,GNDREF*%
X145809000Y-125476000D03*
X146511944Y-123778944D03*
X146511944Y-127173056D03*
X148209000Y-123076000D03*
D28*
X148209000Y-125476000D03*
D27*
X148209000Y-127876000D03*
X149906056Y-123778944D03*
X149906056Y-127173056D03*
X150609000Y-125476000D03*
%TD*%
D18*
%TO.P,R8,1*%
%TO.N,GNDREF*%
X162400000Y-104337500D03*
%TO.P,R8,2*%
%TO.N,Net-(K1-Pad3)*%
X162400000Y-107262500D03*
%TD*%
D15*
%TO.P,J3,1,Pin_1*%
%TO.N,GNDREF*%
X128310001Y-108199996D03*
D16*
%TO.P,J3,2,Pin_2*%
%TO.N,RELAY_{1}*%
X128310001Y-113279995D03*
%TD*%
D33*
%TO.P,C2,1*%
%TO.N,5V_from_supply*%
X178725000Y-117725000D03*
%TO.P,C2,2*%
%TO.N,GNDREF*%
X178725000Y-119275000D03*
%TD*%
D19*
%TO.P,TP20,1,1*%
%TO.N,SPI0_{CE0}*%
X219710000Y-65405000D03*
%TD*%
D10*
%TO.P,K2,1*%
%TO.N,RELAY_{2}*%
X155500000Y-36000000D03*
D11*
%TO.P,K2,2*%
%TO.N,Net-(D2-A)*%
X153550000Y-29950000D03*
D10*
%TO.P,K2,3*%
%TO.N,Net-(K2-Pad3)*%
X141350000Y-29950000D03*
%TO.P,K2,4*%
%TO.N,Net-(K2-Pad4)*%
X141300000Y-42000000D03*
D11*
%TO.P,K2,5*%
%TO.N,+12V*%
X153550000Y-41950000D03*
%TD*%
D34*
%TO.P,J10,1,Pin_1*%
%TO.N,GNDREF*%
X176450000Y-104025000D03*
D35*
%TO.P,J10,2,Pin_2*%
%TO.N,5V_to_Pi*%
X173910000Y-104025000D03*
%TD*%
D26*
%TO.P,Q5,1,B*%
%TO.N,Net-(Q5-B)*%
X159662500Y-87850000D03*
%TO.P,Q5,2,E*%
%TO.N,GNDREF*%
X159662500Y-89750000D03*
%TO.P,Q5,3,C*%
%TO.N,Net-(D3-A)*%
X161537501Y-88800000D03*
%TD*%
D27*
%TO.P,H12,1,1*%
%TO.N,5V_to_Pi*%
X167780000Y-116332000D03*
X168482944Y-114634944D03*
X168482944Y-118029056D03*
X170180000Y-113932000D03*
D28*
X170180000Y-116332000D03*
D27*
X170180000Y-118732000D03*
X171877056Y-114634944D03*
X171877056Y-118029056D03*
X172580000Y-116332000D03*
%TD*%
D19*
%TO.P,TP21,1,1*%
%TO.N,SPI0_{MISO}*%
X222250000Y-67945000D03*
%TD*%
D36*
%TO.N,+12V*%
X158851600Y-83200000D03*
X158851600Y-108200000D03*
X158200000Y-57400000D03*
X158200000Y-32400000D03*
X158200000Y-57400000D03*
%TO.N,GNDREF*%
X160250000Y-41300000D03*
X162900000Y-51800000D03*
X164300000Y-79350000D03*
X160250000Y-91350000D03*
X162500000Y-27200000D03*
X160300000Y-116200000D03*
X160250000Y-66350000D03*
X163750000Y-101650000D03*
X183600000Y-92017499D03*
%TD*%
D37*
%TO.N,Net-(D1-A)*%
X154202400Y-113800000D02*
X152646400Y-112244000D01*
X161799999Y-114048741D02*
X161799999Y-118000000D01*
X161551258Y-113800000D02*
X161799999Y-114048741D01*
X152646400Y-108281600D02*
X153550000Y-107378000D01*
X152646400Y-112244000D02*
X152646400Y-108281600D01*
X153550000Y-107378000D02*
X153550000Y-104950000D01*
X161551258Y-113800000D02*
X154202400Y-113800000D01*
%TO.N,+12V*%
X159000001Y-93000000D02*
X154600000Y-93000000D01*
X159337500Y-32400000D02*
X158200000Y-32400000D01*
D38*
X236143230Y-109300000D02*
X225372290Y-109300000D01*
D37*
X154600000Y-43000000D02*
X153550000Y-41950000D01*
X154600000Y-93000000D02*
X153550000Y-91950000D01*
X159200000Y-82851600D02*
X159200000Y-82262500D01*
X159337500Y-57400000D02*
X158200000Y-57400000D01*
X158851600Y-83200000D02*
X159200000Y-82851600D01*
D38*
X236950000Y-110106770D02*
X236143230Y-109300000D01*
D37*
X158800000Y-108148400D02*
X158851600Y-108200000D01*
X154600000Y-68000000D02*
X153550000Y-66950000D01*
X158800000Y-107200000D02*
X158800000Y-108148400D01*
D38*
X225372290Y-109300000D02*
X222320000Y-109300000D01*
D37*
X159337500Y-57400000D02*
X158200000Y-57400000D01*
X159000001Y-68000000D02*
X154600000Y-68000000D01*
X159000001Y-118000000D02*
X154600000Y-118000000D01*
D38*
X222320000Y-109300000D02*
X215660000Y-115960000D01*
D37*
X154600000Y-118000000D02*
X153550000Y-116950000D01*
X159000001Y-43000000D02*
X154600000Y-43000000D01*
D39*
%TO.N,Net-(Q1-B)*%
X159775000Y-112737500D02*
X159662500Y-112850000D01*
X159775000Y-110600000D02*
X159775000Y-112737500D01*
D38*
%TO.N,GNDREF*%
X128310001Y-74089999D02*
X128310001Y-83199996D01*
D37*
X179833229Y-120833229D02*
X178725000Y-119725000D01*
X159676257Y-39750000D02*
X159676257Y-40726257D01*
D38*
X219032290Y-121040000D02*
X225372290Y-114700000D01*
D37*
X162400000Y-104337500D02*
X162400000Y-103000000D01*
D38*
X128310001Y-58199996D02*
X129799996Y-58199996D01*
D37*
X184872290Y-120833229D02*
X179833229Y-120833229D01*
D38*
X132600000Y-44800000D02*
X128310001Y-49089999D01*
D37*
X159662500Y-115562500D02*
X160300000Y-116200000D01*
X159662500Y-65762500D02*
X160250000Y-66350000D01*
X159662500Y-89750000D02*
X159662500Y-90762500D01*
D38*
X129799996Y-83199996D02*
X132600000Y-86000000D01*
D37*
X184872290Y-122872290D02*
X184872290Y-120833229D01*
X184675000Y-92067499D02*
X183650000Y-92067499D01*
D38*
X132600000Y-69800000D02*
X128310001Y-74089999D01*
D37*
X186325000Y-94118499D02*
X184675000Y-92468499D01*
X162262500Y-29200000D02*
X162262500Y-27437500D01*
D38*
X128310001Y-33199996D02*
X129799996Y-33199996D01*
D37*
X162400000Y-79337500D02*
X164287500Y-79337500D01*
D38*
X132600000Y-94800000D02*
X128310001Y-99089999D01*
X128310001Y-99089999D02*
X128310001Y-108199996D01*
X129799996Y-33199996D02*
X132600000Y-36000000D01*
X132600000Y-36000000D02*
X132600000Y-44800000D01*
D37*
X183650000Y-92067499D02*
X183600000Y-92017499D01*
X159676257Y-40726257D02*
X160250000Y-41300000D01*
X162262500Y-27437500D02*
X162500000Y-27200000D01*
D38*
X201740000Y-128660000D02*
X195340000Y-128660000D01*
X128310001Y-49089999D02*
X128310001Y-58199996D01*
X129799996Y-58199996D02*
X132600000Y-61000000D01*
D37*
X159662500Y-64750000D02*
X159662500Y-65762500D01*
X184675000Y-92468499D02*
X184675000Y-92067499D01*
X178725000Y-119725000D02*
X178725000Y-119275000D01*
X159662500Y-90762500D02*
X160250000Y-91350000D01*
X195340000Y-128660000D02*
X190660000Y-128660000D01*
D38*
X215660000Y-121040000D02*
X209360000Y-121040000D01*
X209360000Y-121040000D02*
X201740000Y-128660000D01*
D37*
X162262500Y-52437500D02*
X162900000Y-51800000D01*
X159662500Y-114750000D02*
X159662500Y-115562500D01*
X162262500Y-54200000D02*
X162262500Y-52437500D01*
X190660000Y-128660000D02*
X184872290Y-122872290D01*
X162400000Y-103000000D02*
X163750000Y-101650000D01*
D38*
X215660000Y-121040000D02*
X219032290Y-121040000D01*
D37*
X164287500Y-79337500D02*
X164300000Y-79350000D01*
D38*
X128310001Y-83199996D02*
X129799996Y-83199996D01*
X132600000Y-61000000D02*
X132600000Y-69800000D01*
D37*
X186325000Y-94567499D02*
X186325000Y-94118499D01*
D38*
X132600000Y-86000000D02*
X132600000Y-94800000D01*
D37*
%TO.N,Net-(Q2-G)*%
X186637500Y-98979998D02*
X186637500Y-98029999D01*
X186637500Y-96567999D02*
X187680600Y-95524899D01*
X187680600Y-95524899D02*
X187680600Y-93423099D01*
X186450000Y-99167498D02*
X186637500Y-98979998D01*
X187680600Y-93423099D02*
X186325000Y-92067499D01*
X186637500Y-98029999D02*
X186637500Y-97080000D01*
X186450000Y-101629999D02*
X186450000Y-99167498D01*
X186637500Y-97080000D02*
X186637500Y-96567999D01*
%TO.N,5V_to_Pi*%
X173960000Y-93260000D02*
X173960000Y-90720000D01*
X182245000Y-98699899D02*
X182914900Y-98029999D01*
X180400000Y-32258000D02*
X180400000Y-21336000D01*
X170180000Y-113792000D02*
X170180000Y-116332000D01*
X173910000Y-110062000D02*
X170180000Y-113792000D01*
X175260000Y-96471099D02*
X175228901Y-96471099D01*
X183642000Y-66294000D02*
X181356000Y-68580000D01*
X183013850Y-101629999D02*
X182245000Y-100861149D01*
X182245000Y-100861149D02*
X182245000Y-98699899D01*
X181356000Y-68580000D02*
X181356000Y-96471099D01*
X180400000Y-32258000D02*
X180400000Y-35874000D01*
X173910000Y-104025000D02*
X173910000Y-110062000D01*
X182914900Y-98029999D02*
X181356000Y-96471099D01*
X180400000Y-35874000D02*
X183642000Y-39116000D01*
X175228901Y-96471099D02*
X173910000Y-97790000D01*
X184362500Y-98029999D02*
X182914900Y-98029999D01*
X181356000Y-96471099D02*
X175228901Y-96471099D01*
X175260000Y-96471099D02*
X173960000Y-95171099D01*
X183642000Y-39116000D02*
X183642000Y-66294000D01*
X173910000Y-97790000D02*
X173910000Y-104025000D01*
X173960000Y-95171099D02*
X173960000Y-93260000D01*
X184550000Y-101629999D02*
X183013850Y-101629999D01*
%TO.N,5V_from_supply*%
X180566771Y-115433229D02*
X178725000Y-117275000D01*
X178725000Y-117275000D02*
X178725000Y-117725000D01*
X185500000Y-106125000D02*
X187715000Y-108340000D01*
X185500000Y-103505000D02*
X185500000Y-100117498D01*
X185500000Y-103505000D02*
X185500000Y-106125000D01*
X187715000Y-108340000D02*
X190340000Y-108340000D01*
X184872290Y-115433229D02*
X180566771Y-115433229D01*
X190340000Y-108340000D02*
X184872290Y-113807710D01*
X185500000Y-100117498D02*
X184362500Y-98979998D01*
X190340000Y-108340000D02*
X195340000Y-108340000D01*
X184872290Y-113807710D02*
X184872290Y-115433229D01*
%TO.N,Net-(Q3B-C2)*%
X184675000Y-94567499D02*
X184675000Y-96015899D01*
X184675000Y-96015899D02*
X184362500Y-96328399D01*
X184362500Y-96328399D02*
X184362500Y-97080000D01*
%TO.N,Net-(D2-A)*%
X152646400Y-33281600D02*
X153550000Y-32378000D01*
X161551258Y-38800000D02*
X161799999Y-39048741D01*
X161799999Y-39048741D02*
X161799999Y-43000000D01*
X154202400Y-38800000D02*
X152646400Y-37244000D01*
X152646400Y-37244000D02*
X152646400Y-33281600D01*
X153550000Y-32378000D02*
X153550000Y-29950000D01*
X161551258Y-38800000D02*
X154202400Y-38800000D01*
%TO.N,Net-(D3-A)*%
X161799999Y-89048741D02*
X161799999Y-93000000D01*
X161551258Y-88800000D02*
X154202400Y-88800000D01*
X154202400Y-88800000D02*
X152646400Y-87244000D01*
X152646400Y-87244000D02*
X152646400Y-83281600D01*
X152646400Y-83281600D02*
X153550000Y-82378000D01*
X161551258Y-88800000D02*
X161799999Y-89048741D01*
X153550000Y-82378000D02*
X153550000Y-79950000D01*
%TO.N,Net-(D4-A)*%
X152646400Y-62244000D02*
X152646400Y-58281600D01*
X161551258Y-63800000D02*
X154202400Y-63800000D01*
X153550000Y-57378000D02*
X153550000Y-54950000D01*
X161551258Y-63800000D02*
X161799999Y-64048741D01*
X161799999Y-64048741D02*
X161799999Y-68000000D01*
X154202400Y-63800000D02*
X152646400Y-62244000D01*
X152646400Y-58281600D02*
X153550000Y-57378000D01*
D39*
%TO.N,IO RELAY_{4}*%
X169684700Y-52158900D02*
X169684700Y-53276500D01*
X175188000Y-48768000D02*
X173075600Y-48768000D01*
X173075600Y-48768000D02*
X169684700Y-52158900D01*
X162361200Y-60600000D02*
X161425000Y-60600000D01*
X169684700Y-53276500D02*
X162361200Y-60600000D01*
X176500000Y-50080000D02*
X175188000Y-48768000D01*
D37*
%TO.N,Net-(K1-Pad4)*%
X151325600Y-102592000D02*
X141300000Y-112617600D01*
X154932400Y-102592000D02*
X151325600Y-102592000D01*
X154932400Y-102592000D02*
X156677900Y-104337500D01*
X141300000Y-112617600D02*
X141300000Y-117000000D01*
X156677900Y-104337500D02*
X159200000Y-104337500D01*
%TO.N,Net-(K1-Pad3)*%
X158820400Y-101220400D02*
X160800000Y-103200000D01*
X141350000Y-104950000D02*
X145079600Y-101220400D01*
X160800000Y-105662500D02*
X162400000Y-107262500D01*
X160800000Y-103200000D02*
X160800000Y-105662500D01*
X145079600Y-101220400D02*
X158820400Y-101220400D01*
%TO.N,Net-(K2-Pad3)*%
X160800000Y-30937500D02*
X162262500Y-32400000D01*
X159020400Y-26220400D02*
X160800000Y-28000000D01*
X160800000Y-28000000D02*
X160800000Y-30937500D01*
X141350000Y-29950000D02*
X145079600Y-26220400D01*
X145079600Y-26220400D02*
X159020400Y-26220400D01*
%TO.N,Net-(K2-Pad4)*%
X141300000Y-42000000D02*
X141300000Y-37617600D01*
X151325600Y-27592000D02*
X155392000Y-27592000D01*
X157000000Y-29200000D02*
X159337500Y-29200000D01*
X141300000Y-37617600D02*
X151325600Y-27592000D01*
X155392000Y-27592000D02*
X157000000Y-29200000D01*
%TO.N,Net-(K3-Pad3)*%
X160800000Y-77766206D02*
X160800000Y-80662500D01*
X160800000Y-80662500D02*
X162400000Y-82262500D01*
X145079600Y-76220400D02*
X159254194Y-76220400D01*
X141350000Y-79950000D02*
X145079600Y-76220400D01*
X159254194Y-76220400D02*
X160800000Y-77766206D01*
D39*
%TO.N,Net-(Q4-B)*%
X159676257Y-37850000D02*
X159676257Y-35698743D01*
X159676257Y-35698743D02*
X159775000Y-35600000D01*
%TO.N,Net-(Q5-B)*%
X159775000Y-85600000D02*
X159775000Y-87737500D01*
X159775000Y-87737500D02*
X159662500Y-87850000D01*
%TO.N,Net-(Q6-B)*%
X159775000Y-60600000D02*
X159775000Y-62737500D01*
X159775000Y-62737500D02*
X159662500Y-62850000D01*
D37*
%TO.N,Net-(K3-Pad4)*%
X154932400Y-77592000D02*
X156677900Y-79337500D01*
X151325600Y-77592000D02*
X141300000Y-87617600D01*
X154932400Y-77592000D02*
X151325600Y-77592000D01*
X141300000Y-87617600D02*
X141300000Y-92000000D01*
X156677900Y-79337500D02*
X159200000Y-79337500D01*
%TO.N,Net-(K4-Pad4)*%
X141300000Y-62617600D02*
X151325600Y-52592000D01*
X151325600Y-52592000D02*
X157729500Y-52592000D01*
X157729500Y-52592000D02*
X159337500Y-54200000D01*
X141300000Y-67000000D02*
X141300000Y-62617600D01*
%TO.N,Net-(K4-Pad3)*%
X145079600Y-51220400D02*
X159220400Y-51220400D01*
X160800000Y-55937500D02*
X162262500Y-57400000D01*
X160800000Y-52800000D02*
X160800000Y-55937500D01*
X159220400Y-51220400D02*
X160800000Y-52800000D01*
X141350000Y-54950000D02*
X145079600Y-51220400D01*
D39*
%TO.N,IO RELAY_{1}*%
X168600000Y-58323600D02*
X168600000Y-104196000D01*
X173024800Y-53898800D02*
X168600000Y-58323600D01*
X176500000Y-55160001D02*
X175238799Y-53898800D01*
X168600000Y-104196000D02*
X162196000Y-110600000D01*
X175238799Y-53898800D02*
X173024800Y-53898800D01*
X162196000Y-110600000D02*
X161425000Y-110600000D01*
%TO.N,IO RELAY_{2}*%
X176500000Y-47540000D02*
X175213400Y-46253400D01*
X172720000Y-46253400D02*
X162066600Y-35600000D01*
X175213400Y-46253400D02*
X172720000Y-46253400D01*
X162066600Y-35600000D02*
X161425000Y-35600000D01*
%TO.N,IO RELAY_{3}*%
X175238801Y-51358800D02*
X172872400Y-51358800D01*
X172872400Y-51358800D02*
X170840400Y-53390800D01*
X163586200Y-85600000D02*
X161425000Y-85600000D01*
X166100000Y-58740800D02*
X166100000Y-83086200D01*
X176500000Y-52619999D02*
X175238801Y-51358800D01*
X170840400Y-53390800D02*
X170840400Y-54000400D01*
X170840400Y-54000400D02*
X166100000Y-58740800D01*
X166100000Y-83086200D02*
X163586200Y-85600000D01*
%TO.N,SPI0_{CE0}*%
X180600000Y-43000000D02*
X173431200Y-35831200D01*
X174400000Y-27276000D02*
X174400000Y-21336000D01*
X178568000Y-61518800D02*
X180600000Y-59486800D01*
X173024800Y-61518800D02*
X178568000Y-61518800D01*
X173960000Y-65320000D02*
X172313600Y-63673600D01*
X173431200Y-28244800D02*
X174400000Y-27276000D01*
X173431200Y-35831200D02*
X173431200Y-28244800D01*
X172313600Y-63673600D02*
X172313600Y-62230000D01*
X172313600Y-62230000D02*
X173024800Y-61518800D01*
X180600000Y-59486800D02*
X180600000Y-43000000D01*
%TO.N,SPI0_{CLK}*%
X172400000Y-36600000D02*
X179600000Y-43800000D01*
X177850800Y-58978800D02*
X172872400Y-58978800D01*
X172400000Y-32258000D02*
X172400000Y-36600000D01*
X171551600Y-64871600D02*
X173228000Y-66548000D01*
X179600000Y-57229600D02*
X177850800Y-58978800D01*
X173228000Y-66548000D02*
X175272001Y-66548000D01*
X175272001Y-66548000D02*
X176500000Y-65320001D01*
X179600000Y-43800000D02*
X179600000Y-57229600D01*
X172872400Y-58978800D02*
X171551600Y-60299600D01*
X172400000Y-32258000D02*
X172400000Y-21336000D01*
X171551600Y-60299600D02*
X171551600Y-64871600D01*
%TO.N,SPI0_{CE1}*%
X174400000Y-35200000D02*
X174400000Y-32258000D01*
X177901600Y-64058800D02*
X181600000Y-60360400D01*
X175238800Y-64058800D02*
X177901600Y-64058800D01*
X181600000Y-60360400D02*
X181600000Y-42400000D01*
X173960000Y-62780000D02*
X175238800Y-64058800D01*
X181600000Y-42400000D02*
X174400000Y-35200000D01*
%TO.N,SPI0_{MOSI}*%
X176500000Y-70400000D02*
X182400000Y-64500000D01*
X176400000Y-35400000D02*
X176400000Y-32258000D01*
X182400000Y-41400000D02*
X176400000Y-35400000D01*
X182400000Y-64500000D02*
X182400000Y-41400000D01*
X176400000Y-21336000D02*
X176400000Y-32258000D01*
%TO.N,SPI0_{MISO}*%
X177784000Y-56388000D02*
X173126400Y-56388000D01*
X170535600Y-58978800D02*
X170535600Y-66649600D01*
X178800000Y-44600000D02*
X178800000Y-55372000D01*
X170535600Y-66649600D02*
X172974000Y-69088000D01*
X178800000Y-55372000D02*
X177784000Y-56388000D01*
X175272000Y-69088000D02*
X176500000Y-67860000D01*
X170400000Y-36200000D02*
X178800000Y-44600000D01*
X172974000Y-69088000D02*
X175272000Y-69088000D01*
X173126400Y-56388000D02*
X170535600Y-58978800D01*
X170400000Y-32258000D02*
X170400000Y-36200000D01*
%TD*%
M02*
