%TF.GenerationSoftware,KiCad,Pcbnew,8.0.1*%
%TF.CreationDate,2024-03-18T01:33:03-07:00*%
%TF.ProjectId,huffboard,68756666-626f-4617-9264-2e6b69636164,rev?*%
%TF.SameCoordinates,Original*%
%TF.FileFunction,Soldermask,Top*%
%TF.FilePolarity,Negative*%
%FSLAX46Y46*%
G04 Gerber Fmt 4.6, Leading zero omitted, Abs format (unit mm)*
G04 Created by KiCad (PCBNEW 8.0.1) date 2024-03-18 01:33:03*
%MOMM*%
%LPD*%
G01*
G04 APERTURE LIST*
G04 Aperture macros list*
%AMRoundRect*
0 Rectangle with rounded corners*
0 $1 Rounding radius*
0 $2 $3 $4 $5 $6 $7 $8 $9 X,Y pos of 4 corners*
0 Add a 4 corners polygon primitive as box body*
4,1,4,$2,$3,$4,$5,$6,$7,$8,$9,$2,$3,0*
0 Add four circle primitives for the rounded corners*
1,1,$1+$1,$2,$3*
1,1,$1+$1,$4,$5*
1,1,$1+$1,$6,$7*
1,1,$1+$1,$8,$9*
0 Add four rect primitives between the rounded corners*
20,1,$1+$1,$2,$3,$4,$5,0*
20,1,$1+$1,$4,$5,$6,$7,0*
20,1,$1+$1,$6,$7,$8,$9,0*
20,1,$1+$1,$8,$9,$2,$3,0*%
G04 Aperture macros list end*
%ADD10C,3.000000*%
%ADD11C,2.500000*%
%ADD12C,6.200000*%
%ADD13RoundRect,0.250000X-0.350000X-0.625000X0.350000X-0.625000X0.350000X0.625000X-0.350000X0.625000X0*%
%ADD14O,1.200000X1.750000*%
%ADD15R,2.600000X2.600000*%
%ADD16C,2.600000*%
%ADD17RoundRect,0.150000X0.512500X0.150000X-0.512500X0.150000X-0.512500X-0.150000X0.512500X-0.150000X0*%
%ADD18C,3.200000*%
%ADD19RoundRect,0.250000X-0.625000X0.312500X-0.625000X-0.312500X0.625000X-0.312500X0.625000X0.312500X0*%
%ADD20C,1.700000*%
%ADD21RoundRect,0.250000X-0.550000X1.500000X-0.550000X-1.500000X0.550000X-1.500000X0.550000X1.500000X0*%
%ADD22RoundRect,0.250000X-0.300000X-0.300000X0.300000X-0.300000X0.300000X0.300000X-0.300000X0.300000X0*%
%ADD23RoundRect,0.250000X0.600000X0.600000X-0.600000X0.600000X-0.600000X-0.600000X0.600000X-0.600000X0*%
%ADD24RoundRect,0.200000X0.200000X0.275000X-0.200000X0.275000X-0.200000X-0.275000X0.200000X-0.275000X0*%
%ADD25RoundRect,0.250000X0.625000X-0.312500X0.625000X0.312500X-0.625000X0.312500X-0.625000X-0.312500X0*%
%ADD26RoundRect,0.200000X-0.200000X-0.275000X0.200000X-0.275000X0.200000X0.275000X-0.200000X0.275000X0*%
%ADD27RoundRect,0.150000X-0.587500X-0.150000X0.587500X-0.150000X0.587500X0.150000X-0.587500X0.150000X0*%
%ADD28C,0.800000*%
%ADD29C,6.400000*%
%ADD30RoundRect,0.250000X-0.312500X-0.625000X0.312500X-0.625000X0.312500X0.625000X-0.312500X0.625000X0*%
%ADD31RoundRect,0.250000X0.312500X0.625000X-0.312500X0.625000X-0.312500X-0.625000X0.312500X-0.625000X0*%
%ADD32RoundRect,0.150000X-0.150000X0.587500X-0.150000X-0.587500X0.150000X-0.587500X0.150000X0.587500X0*%
%ADD33C,2.270000*%
%ADD34RoundRect,0.225000X-0.250000X0.225000X-0.250000X-0.225000X0.250000X-0.225000X0.250000X0.225000X0*%
%ADD35R,1.700000X1.700000*%
%ADD36O,1.700000X1.700000*%
G04 APERTURE END LIST*
D10*
%TO.C,K3*%
X155500000Y-86000000D03*
D11*
X153550000Y-79950000D03*
D10*
X141350000Y-79950000D03*
X141300000Y-92000000D03*
D11*
X153550000Y-91950000D03*
%TD*%
D12*
%TO.C,H1*%
X195000000Y-40000000D03*
%TD*%
D13*
%TO.C,J8*%
X170400000Y-32258000D03*
D14*
X172400000Y-32258000D03*
X174400000Y-32258000D03*
X176400000Y-32258000D03*
X178400000Y-32258000D03*
X180400000Y-32258000D03*
%TD*%
D15*
%TO.C,J5*%
X128310001Y-83199996D03*
D16*
X128310001Y-88279995D03*
%TD*%
D17*
%TO.C,Q3*%
X186637500Y-98979998D03*
X186637500Y-98029999D03*
X186637500Y-97080000D03*
X184362500Y-97080000D03*
X184362500Y-98029999D03*
X184362500Y-98979998D03*
%TD*%
D18*
%TO.C,H7*%
X243000000Y-128000000D03*
%TD*%
D19*
%TO.C,R12*%
X162400000Y-79337500D03*
X162400000Y-82262500D03*
%TD*%
D20*
%TO.C,TP23*%
X222250000Y-65405000D03*
%TD*%
D12*
%TO.C,H2*%
X244000000Y-40000000D03*
%TD*%
D21*
%TO.C,C3*%
X184872290Y-115433229D03*
X184872290Y-120833229D03*
%TD*%
D22*
%TO.C,D3*%
X159000001Y-93000000D03*
X161799999Y-93000000D03*
%TD*%
D20*
%TO.C,TP19*%
X219710000Y-62865000D03*
%TD*%
%TO.C,TP11*%
X219710000Y-75565000D03*
%TD*%
D10*
%TO.C,K1*%
X155500000Y-111000000D03*
D11*
X153550000Y-104950000D03*
D10*
X141350000Y-104950000D03*
X141300000Y-117000000D03*
D11*
X153550000Y-116950000D03*
%TD*%
D16*
%TO.C,J2*%
X236950000Y-117726770D03*
X236950000Y-110106770D03*
%TD*%
D18*
%TO.C,H6*%
X243000000Y-21000000D03*
%TD*%
D20*
%TO.C,TP1*%
X222250000Y-90805000D03*
%TD*%
D23*
%TO.C,J1*%
X176500000Y-93260000D03*
D20*
X173960000Y-93260000D03*
X176500000Y-90720000D03*
X173960000Y-90720000D03*
X176500000Y-88180001D03*
X173960000Y-88180000D03*
X176500000Y-85640000D03*
X173960000Y-85640000D03*
X176500000Y-83100000D03*
X173960000Y-83100000D03*
X176500000Y-80560000D03*
X173960000Y-80560000D03*
X176500000Y-78020000D03*
X173960000Y-78020000D03*
X176500000Y-75479999D03*
X173960000Y-75480000D03*
X176500000Y-72940000D03*
X173960000Y-72940000D03*
X176500000Y-70400000D03*
X173960000Y-70400000D03*
X176500000Y-67860000D03*
X173960000Y-67860000D03*
X176500000Y-65320001D03*
X173960000Y-65320000D03*
X176500000Y-62780000D03*
X173960000Y-62780000D03*
X176500000Y-60240000D03*
X173960000Y-60240000D03*
X176500000Y-57700000D03*
X173960000Y-57700000D03*
X176500000Y-55160001D03*
X173960000Y-55160000D03*
X176500000Y-52619999D03*
X173960000Y-52620000D03*
X176500000Y-50080000D03*
X173960000Y-50080000D03*
X176500000Y-47540000D03*
X173960000Y-47540000D03*
X176500000Y-45000000D03*
X173960000Y-45000000D03*
%TD*%
D24*
%TO.C,R1*%
X161425000Y-110600000D03*
X159775000Y-110600000D03*
%TD*%
D25*
%TO.C,R11*%
X159200000Y-82262500D03*
X159200000Y-79337500D03*
%TD*%
D26*
%TO.C,R2*%
X184675000Y-92067499D03*
X186325000Y-92067499D03*
%TD*%
D15*
%TO.C,J4*%
X128310001Y-33199996D03*
D16*
X128310001Y-38279995D03*
%TD*%
D27*
%TO.C,Q4*%
X159676257Y-37850000D03*
X159676257Y-39750000D03*
X161551258Y-38800000D03*
%TD*%
D20*
%TO.C,TP7*%
X219710000Y-80645000D03*
%TD*%
D27*
%TO.C,Q1*%
X159662500Y-112850000D03*
X159662500Y-114750000D03*
X161537501Y-113800000D03*
%TD*%
D20*
%TO.C,TP8*%
X222250000Y-55245000D03*
%TD*%
%TO.C,TP3*%
X219710000Y-85725000D03*
%TD*%
D25*
%TO.C,R7*%
X159200000Y-107262500D03*
X159200000Y-104337500D03*
%TD*%
D20*
%TO.C,TP5*%
X222250000Y-47625000D03*
%TD*%
D28*
%TO.C,H10*%
X161176000Y-125476000D03*
X161878944Y-123778944D03*
X161878944Y-127173056D03*
X163576000Y-123076000D03*
D29*
X163576000Y-125476000D03*
D28*
X163576000Y-127876000D03*
X165273056Y-123778944D03*
X165273056Y-127173056D03*
X165976000Y-125476000D03*
%TD*%
D20*
%TO.C,TP2*%
X222250000Y-88265000D03*
%TD*%
D12*
%TO.C,H4*%
X244000000Y-98000000D03*
%TD*%
D20*
%TO.C,TP16*%
X222250000Y-57785000D03*
%TD*%
D15*
%TO.C,J6*%
X128310001Y-58199996D03*
D16*
X128310001Y-63279995D03*
%TD*%
D30*
%TO.C,R14*%
X159337500Y-57400000D03*
X162262500Y-57400000D03*
%TD*%
D20*
%TO.C,TP18*%
X222250000Y-50165000D03*
%TD*%
D24*
%TO.C,R6*%
X161425000Y-60600000D03*
X159775000Y-60600000D03*
%TD*%
D10*
%TO.C,K4*%
X155500000Y-61000000D03*
D11*
X153550000Y-54950000D03*
D10*
X141350000Y-54950000D03*
X141300000Y-67000000D03*
D11*
X153550000Y-66950000D03*
%TD*%
D24*
%TO.C,R5*%
X161425000Y-85600000D03*
X159775000Y-85600000D03*
%TD*%
D13*
%TO.C,J7*%
X172400000Y-21336000D03*
D14*
X174400000Y-21336000D03*
X176400000Y-21336000D03*
X178400000Y-21336000D03*
X180400000Y-21336000D03*
%TD*%
D18*
%TO.C,H8*%
X128000000Y-128000000D03*
%TD*%
D28*
%TO.C,H9*%
X136284000Y-125476000D03*
X136986944Y-123778944D03*
X136986944Y-127173056D03*
X138684000Y-123076000D03*
D29*
X138684000Y-125476000D03*
D28*
X138684000Y-127876000D03*
X140381056Y-123778944D03*
X140381056Y-127173056D03*
X141084000Y-125476000D03*
%TD*%
D20*
%TO.C,TP4*%
X219710000Y-83185000D03*
%TD*%
D31*
%TO.C,R9*%
X162262500Y-29200000D03*
X159337500Y-29200000D03*
%TD*%
D20*
%TO.C,TP22*%
X222250000Y-70485000D03*
%TD*%
%TO.C,TP15*%
X219710000Y-55245000D03*
%TD*%
D12*
%TO.C,H3*%
X195000000Y-98000000D03*
%TD*%
D32*
%TO.C,Q2*%
X186450000Y-101629999D03*
X184550000Y-101629999D03*
X185500000Y-103505000D03*
%TD*%
D24*
%TO.C,R3*%
X186325000Y-94567499D03*
X184675000Y-94567499D03*
%TD*%
D22*
%TO.C,D4*%
X159000001Y-68000000D03*
X161799999Y-68000000D03*
%TD*%
D27*
%TO.C,Q6*%
X159662500Y-62850000D03*
X159662500Y-64750000D03*
X161537501Y-63800000D03*
%TD*%
D22*
%TO.C,D1*%
X159000001Y-118000000D03*
X161799999Y-118000000D03*
%TD*%
D20*
%TO.C,TP13*%
X219710000Y-67945000D03*
%TD*%
D31*
%TO.C,R13*%
X162262500Y-54200000D03*
X159337500Y-54200000D03*
%TD*%
D30*
%TO.C,R10*%
X159337500Y-32400000D03*
X162262500Y-32400000D03*
%TD*%
D21*
%TO.C,C1*%
X225372290Y-109300000D03*
X225372290Y-114700000D03*
%TD*%
D20*
%TO.C,TP9*%
X222250000Y-52705000D03*
%TD*%
%TO.C,TP10*%
X222250000Y-75565000D03*
%TD*%
D18*
%TO.C,H5*%
X128000000Y-21000000D03*
%TD*%
D24*
%TO.C,R4*%
X161425000Y-35600000D03*
X159775000Y-35600000D03*
%TD*%
D20*
%TO.C,TP17*%
X222250000Y-85725000D03*
%TD*%
%TO.C,TP12*%
X219710000Y-73025000D03*
%TD*%
D33*
%TO.C,U1*%
X215660000Y-115960000D03*
X215660000Y-121040000D03*
X215660000Y-128660000D03*
X195340000Y-128660000D03*
X195340000Y-118500000D03*
X195340000Y-108340000D03*
%TD*%
D20*
%TO.C,TP6*%
X222250000Y-80645000D03*
%TD*%
%TO.C,TP14*%
X222250000Y-78105000D03*
%TD*%
D22*
%TO.C,D2*%
X159000001Y-43000000D03*
X161799999Y-43000000D03*
%TD*%
D28*
%TO.C,H11*%
X145809000Y-125476000D03*
X146511944Y-123778944D03*
X146511944Y-127173056D03*
X148209000Y-123076000D03*
D29*
X148209000Y-125476000D03*
D28*
X148209000Y-127876000D03*
X149906056Y-123778944D03*
X149906056Y-127173056D03*
X150609000Y-125476000D03*
%TD*%
D19*
%TO.C,R8*%
X162400000Y-104337500D03*
X162400000Y-107262500D03*
%TD*%
D15*
%TO.C,J3*%
X128310001Y-108199996D03*
D16*
X128310001Y-113279995D03*
%TD*%
D34*
%TO.C,C2*%
X178725000Y-117725000D03*
X178725000Y-119275000D03*
%TD*%
D20*
%TO.C,TP20*%
X219710000Y-65405000D03*
%TD*%
D10*
%TO.C,K2*%
X155500000Y-36000000D03*
D11*
X153550000Y-29950000D03*
D10*
X141350000Y-29950000D03*
X141300000Y-42000000D03*
D11*
X153550000Y-41950000D03*
%TD*%
D35*
%TO.C,J10*%
X176450000Y-104025000D03*
D36*
X173910000Y-104025000D03*
%TD*%
D27*
%TO.C,Q5*%
X159662500Y-87850000D03*
X159662500Y-89750000D03*
X161537501Y-88800000D03*
%TD*%
D28*
%TO.C,H12*%
X167780000Y-116332000D03*
X168482944Y-114634944D03*
X168482944Y-118029056D03*
X170180000Y-113932000D03*
D29*
X170180000Y-116332000D03*
D28*
X170180000Y-118732000D03*
X171877056Y-114634944D03*
X171877056Y-118029056D03*
X172580000Y-116332000D03*
%TD*%
D20*
%TO.C,TP21*%
X222250000Y-67945000D03*
%TD*%
M02*
